<?xml version="1.0" encoding="UTF-8" standalone="no"?>
<!-- Created with Inkscape (http://www.inkscape.org/) -->

<svg
   width="141.15979mm"
   height="141.91225mm"
   viewBox="0 0 141.15979 141.91225"
   version="1.1"
   id="svg1"
   xml:space="preserve"
   xmlns="http://www.w3.org/2000/svg"
   xmlns:svg="http://www.w3.org/2000/svg"><defs
     id="defs1" /><g
     id="layer1"
     transform="translate(-45.57219,-38.05222)"><g
       transform="matrix(0.03527778,0,0,-0.03527778,42.150246,182.33834)"
       fill="#000000"
       stroke="none"
       id="g4"
       style="fill:#ececec"><path
         d="m 258,4008 c -3,-108 0,-150 10,-160 5,-5 38,-11 75,-15 l 67,-6 -1,-1021 C 408,1488 399,798 381,792 338,778 299,724 262,627 203,476 110,182 103,129 L 97,82 271,76 c 96,-3 992,-7 1991,-8 1436,-2 1820,0 1829,9 10,10 10,23 -1,65 -23,92 -178,549 -195,574 -8,13 -33,34 -54,46 l -39,22 5,1516 c 3,833 7,1517 9,1519 1,2 32,6 67,8 l 64,6 7,60 c 3,33 6,88 6,122 v 62 l -1027,6 c -566,4 -1398,7 -1850,7 H 260 Z m 3619,-2 c 2,-1 6,-24 10,-51 l 6,-48 -969,6 c -533,4 -1335,7 -1781,7 H 330 v 52 51 l 1772,-7 c 975,-3 1773,-8 1775,-10 z M 750,2968 c 0,-475 -3,-1157 -7,-1515 L 737,800 H 607 477 l 6,608 c 4,334 7,1015 7,1515 v 907 h 130 130 z m 1292,785 c 3,-69 8,-84 40,-134 65,-100 63,-141 -9,-191 -46,-31 -51,-32 -183,-38 -195,-9 -204,-17 -215,-182 l -7,-108 H 1244 820 v 365 365 h 609 609 z m 100,20 c 3,-45 13,-73 44,-123 80,-131 83,-169 21,-237 -36,-40 -46,-26 -19,27 34,68 25,114 -38,216 -33,52 -50,89 -50,110 0,83 36,89 42,7 z m 935,47 h 313 v -367 -368 l -327,2 c -181,2 -365,5 -409,9 l -81,6 -6,111 c -2,62 -8,120 -12,130 -13,31 -47,42 -149,47 l -99,5 2,106 2,106 -46,67 c -47,69 -62,112 -51,142 6,16 29,17 278,11 149,-4 412,-7 585,-7 z m 653,-843 c 0,-464 -3,-1148 -7,-1520 l -6,-677 h -130 -130 l 6,593 c 4,325 7,1009 7,1520 v 927 h 130 130 z m -1272,308 c 3,-3 8,-139 10,-301 4,-244 2,-298 -9,-305 -8,-5 -163,-9 -345,-9 h -331 l -7,61 c -3,34 -6,169 -6,299 0,183 3,240 13,248 7,6 49,13 92,15 109,6 576,0 583,-8 z m -788,-305 v -30 h -409 c -225,0 -416,3 -425,6 -24,9 -19,33 7,39 53,11 91,12 450,14 l 377,1 z m 1718,-13 3,-37 h -349 c -192,0 -377,3 -411,6 -60,7 -61,7 -61,38 v 31 h 408 407 z M 1674,2743 c 4,-59 14,-119 22,-135 15,-28 26,-32 132,-42 29,-3 57,-8 62,-11 6,-3 10,-27 10,-52 0,-26 8,-61 19,-82 11,-20 22,-53 26,-74 5,-31 23,-56 87,-123 44,-46 87,-84 94,-84 7,0 46,38 86,83 67,77 75,90 91,159 9,41 17,92 17,114 0,61 7,66 110,73 73,5 95,10 105,25 20,26 35,107 35,184 v 67 l 410,1 410,1 v -366 c 0,-201 -3,-666 -7,-1033 l -6,-668 h -164 -163 v 69 69 l 73,6 c 192,17 186,16 195,44 9,35 9,268 -1,278 -11,12 -766,22 -1649,23 l -798,1 V 1107 943 l 107,-6 c 58,-4 130,-7 160,-7 h 53 v -72 -71 l -187,7 c -103,3 -188,8 -190,10 -2,2 -1,463 3,1025 l 7,1021 h 422 422 z m 566,-213 v -40 h -135 -135 v 35 34 l 73,4 c 39,1 100,4 135,5 l 62,2 z m -10,-125 c 0,-22 -34,-77 -69,-109 -40,-39 -41,-40 -62,-20 -35,30 -79,95 -79,116 0,16 10,18 105,18 58,0 105,-2 105,-5 z m 514,-1222 519,-6 -7,-81 c -4,-44 -9,-82 -11,-84 -2,-2 -518,2 -1147,8 -827,9 -1145,15 -1150,24 -7,10 -12,123 -5,128 2,1 550,9 1107,16 96,1 408,-1 694,-5 z m -121,-260 217,-6 v -58 c 0,-35 -5,-61 -12,-66 -10,-6 -1410,-6 -1414,0 -1,1 -4,32 -8,70 l -7,67 h 503 c 277,0 601,-3 721,-7 z M 996,668 c -3,-29 -6,-156 -6,-282 V 157 l -391,6 c -215,3 -393,7 -395,10 -11,11 157,491 181,515 21,22 106,29 369,31 l 249,1 z m 1677,45 427,-6 V 427 147 l -347,6 c -190,4 -647,7 -1015,7 h -668 v 275 274 l 78,4 c 153,6 1106,7 1525,0 z m 1125,-22 c 11,-6 34,-50 57,-108 53,-139 146,-415 141,-420 -2,-2 -184,-7 -404,-10 l -400,-6 -6,194 c -4,107 -9,234 -12,283 l -6,89 305,-6 c 176,-3 314,-10 325,-16 z"
         id="path1"
         style="fill:#ececec" /><path
         d="m 2011,3236 c -121,-44 -188,-197 -147,-337 20,-71 64,-121 134,-156 74,-37 184,-39 248,-5 54,28 103,77 125,127 22,47 25,157 7,219 -18,60 -92,131 -159,150 -62,19 -160,20 -208,2 z"
         id="path2"
         style="fill:#ececec" /><path
         d="m 1457,621 c -125,-5 -160,-9 -167,-21 -5,-8 -10,-84 -10,-168 V 280 l 569,2 c 313,2 573,7 578,11 12,13 16,258 5,288 -10,26 -14,27 -119,33 -173,9 -684,14 -856,7 z m 911,-171 c -3,-44 -7,-82 -9,-84 -2,-3 -230,-2 -507,1 l -502,6 v 79 78 h 511 512 z"
         id="path3"
         style="fill:#ececec" /><path
         d="m 2685,611 c -48,-12 -72,-28 -95,-66 -19,-30 -22,-47 -18,-110 3,-66 7,-77 33,-105 48,-50 81,-63 147,-57 74,7 125,37 149,91 67,147 -55,286 -216,247 z m 109,-110 c 37,-38 37,-77 2,-108 -38,-32 -81,-30 -117,6 -16,16 -29,39 -29,51 0,12 13,35 29,51 39,39 78,38 115,0 z"
         id="path4"
         style="fill:#ececec" /></g></g></svg>
