<?xml version="1.0" standalone="no"?>
<!DOCTYPE svg PUBLIC "-//W3C//DTD SVG 20010904//EN"
 "http://www.w3.org/TR/2001/REC-SVG-20010904/DTD/svg10.dtd">
<svg version="1.0" xmlns="http://www.w3.org/2000/svg"
 width="419.000000pt" height="420.000000pt" viewBox="0 0 419.000000 420.000000"
 preserveAspectRatio="xMidYMid meet">
<metadata>
Created by potrace 1.16, written by Peter Selinger 2001-2019
</metadata>
<g transform="translate(0.000000,420.000000) scale(0.100000,-0.100000)"
fill="#000000" stroke="none">
<path d="M258 4008 c-3 -108 0 -150 10 -160 5 -5 38 -11 75 -15 l67 -6 -1
-1021 c-1 -1318 -10 -2008 -28 -2014 -43 -14 -82 -68 -119 -165 -59 -151 -152
-445 -159 -498 l-6 -47 174 -6 c96 -3 992 -7 1991 -8 1436 -2 1820 0 1829 9
10 10 10 23 -1 65 -23 92 -178 549 -195 574 -8 13 -33 34 -54 46 l-39 22 5
1516 c3 833 7 1517 9 1519 1 2 32 6 67 8 l64 6 7 60 c3 33 6 88 6 122 l0 62
-1027 6 c-566 4 -1398 7 -1850 7 l-823 0 -2 -82z m3619 -2 c2 -1 6 -24 10 -51
l6 -48 -969 6 c-533 4 -1335 7 -1781 7 l-813 0 0 52 0 51 1772 -7 c975 -3
1773 -8 1775 -10z m-3127 -1038 c0 -475 -3 -1157 -7 -1515 l-6 -653 -130 0
-130 0 6 608 c4 334 7 1015 7 1515 l0 907 130 0 130 0 0 -862z m1292 785 c3
-69 8 -84 40 -134 65 -100 63 -141 -9 -191 -46 -31 -51 -32 -183 -38 -195 -9
-204 -17 -215 -182 l-7 -108 -424 0 -424 0 0 365 0 365 609 0 609 0 4 -77z
m100 20 c3 -45 13 -73 44 -123 80 -131 83 -169 21 -237 -36 -40 -46 -26 -19
27 34 68 25 114 -38 216 -33 52 -50 89 -50 110 0 83 36 89 42 7z m935 47 l313
0 0 -367 0 -368 -327 2 c-181 2 -365 5 -409 9 l-81 6 -6 111 c-2 62 -8 120
-12 130 -13 31 -47 42 -149 47 l-99 5 2 106 2 106 -46 67 c-47 69 -62 112 -51
142 6 16 29 17 278 11 149 -4 412 -7 585 -7z m653 -843 c0 -464 -3 -1148 -7
-1520 l-6 -677 -130 0 -130 0 6 593 c4 325 7 1009 7 1520 l0 927 130 0 130 0
0 -843z m-1272 308 c3 -3 8 -139 10 -301 4 -244 2 -298 -9 -305 -8 -5 -163 -9
-345 -9 l-331 0 -7 61 c-3 34 -6 169 -6 299 0 183 3 240 13 248 7 6 49 13 92
15 109 6 576 0 583 -8z m-788 -305 l0 -30 -409 0 c-225 0 -416 3 -425 6 -24 9
-19 33 7 39 53 11 91 12 450 14 l377 1 0 -30z m1718 -13 l3 -37 -349 0 c-192
0 -377 3 -411 6 -60 7 -61 7 -61 38 l0 31 408 0 407 0 3 -38z m-1714 -224 c4
-59 14 -119 22 -135 15 -28 26 -32 132 -42 29 -3 57 -8 62 -11 6 -3 10 -27 10
-52 0 -26 8 -61 19 -82 11 -20 22 -53 26 -74 5 -31 23 -56 87 -123 44 -46 87
-84 94 -84 7 0 46 38 86 83 67 77 75 90 91 159 9 41 17 92 17 114 0 61 7 66
110 73 73 5 95 10 105 25 20 26 35 107 35 184 l0 67 410 1 410 1 0 -366 c0
-201 -3 -666 -7 -1033 l-6 -668 -164 0 -163 0 0 69 0 69 73 6 c192 17 186 16
195 44 9 35 9 268 -1 278 -11 12 -766 22 -1649 23 l-798 1 0 -163 0 -164 107
-6 c58 -4 130 -7 160 -7 l53 0 0 -72 0 -71 -187 7 c-103 3 -188 8 -190 10 -2
2 -1 463 3 1025 l7 1021 422 0 422 0 7 -107z m566 -213 l0 -40 -135 0 -135 0
0 35 0 34 73 4 c39 1 100 4 135 5 l62 2 0 -40z m-10 -125 c0 -22 -34 -77 -69
-109 -40 -39 -41 -40 -62 -20 -35 30 -79 95 -79 116 0 16 10 18 105 18 58 0
105 -2 105 -5z m514 -1222 l519 -6 -7 -81 c-4 -44 -9 -82 -11 -84 -2 -2 -518
2 -1147 8 -827 9 -1145 15 -1150 24 -7 10 -12 123 -5 128 2 1 550 9 1107 16
96 1 408 -1 694 -5z m-121 -260 l217 -6 0 -58 c0 -35 -5 -61 -12 -66 -10 -6
-1410 -6 -1414 0 -1 1 -4 32 -8 70 l-7 67 503 0 c277 0 601 -3 721 -7z m-1627
-255 c-3 -29 -6 -156 -6 -282 l0 -229 -391 6 c-215 3 -393 7 -395 10 -11 11
157 491 181 515 21 22 106 29 369 31 l249 1 -7 -52z m1677 45 l427 -6 0 -280
0 -280 -347 6 c-190 4 -647 7 -1015 7 l-668 0 0 275 0 274 78 4 c153 6 1106 7
1525 0z m1125 -22 c11 -6 34 -50 57 -108 53 -139 146 -415 141 -420 -2 -2
-184 -7 -404 -10 l-400 -6 -6 194 c-4 107 -9 234 -12 283 l-6 89 305 -6 c176
-3 314 -10 325 -16z"/>
<path d="M2011 3236 c-121 -44 -188 -197 -147 -337 20 -71 64 -121 134 -156
74 -37 184 -39 248 -5 54 28 103 77 125 127 22 47 25 157 7 219 -18 60 -92
131 -159 150 -62 19 -160 20 -208 2z"/>
<path d="M1457 621 c-125 -5 -160 -9 -167 -21 -5 -8 -10 -84 -10 -168 l0 -152
569 2 c313 2 573 7 578 11 12 13 16 258 5 288 -10 26 -14 27 -119 33 -173 9
-684 14 -856 7z m911 -171 c-3 -44 -7 -82 -9 -84 -2 -3 -230 -2 -507 1 l-502
6 0 79 0 78 511 0 512 0 -5 -80z"/>
<path d="M2685 611 c-48 -12 -72 -28 -95 -66 -19 -30 -22 -47 -18 -110 3 -66
7 -77 33 -105 48 -50 81 -63 147 -57 74 7 125 37 149 91 67 147 -55 286 -216
247z m109 -110 c37 -38 37 -77 2 -108 -38 -32 -81 -30 -117 6 -16 16 -29 39
-29 51 0 12 13 35 29 51 39 39 78 38 115 0z"/>
</g>
</svg>
